<?xml version="1.0" encoding="UTF-8" standalone="no"?>
<!-- Created with Inkscape (http://www.inkscape.org/) -->

<svg
   version="1.1"
   id="svg2"
   width="1122.52"
   height="264.56668"
   viewBox="0 0 1122.52 264.56668"
   sodipodi:docname="GOMPASS PRIMARY LOGO.ai"
   xmlns:inkscape="http://www.inkscape.org/namespaces/inkscape"
   xmlns:sodipodi="http://sodipodi.sourceforge.net/DTD/sodipodi-0.dtd"
   xmlns="http://www.w3.org/2000/svg"
   xmlns:svg="http://www.w3.org/2000/svg">
  <defs
     id="defs6">
    <clipPath
       clipPathUnits="userSpaceOnUse"
       id="clipPath16">
      <path
         d="M 0,198.425 H 841.89 V 0 H 0 Z"
         id="path14" />
    </clipPath>
  </defs>
  <sodipodi:namedview
     id="namedview4"
     pagecolor="#ffffff"
     bordercolor="#000000"
     borderopacity="0.25"
     inkscape:showpageshadow="2"
     inkscape:pageopacity="0.0"
     inkscape:pagecheckerboard="0"
     inkscape:deskcolor="#d1d1d1" />
  <g
     id="g8"
     inkscape:groupmode="layer"
     inkscape:label="GOMPASS PRIMARY LOGO"
     transform="matrix(1.3333333,0,0,-1.3333333,0,264.56667)">
    <g
       id="g10">
      <g
         id="g12"
         clip-path="url(#clipPath16)">
        <g
           id="g18"
           transform="translate(238.8779,81.5106)">
          <path
             d="m 0,0 c 6.661,0 12.006,2.074 16.037,6.227 4.03,4.15 6.046,9.386 6.046,15.71 0,6.323 -2.016,11.585 -6.046,15.784 C 12.006,41.92 6.661,44.02 0,44.02 c -6.564,0 -11.838,-2.088 -15.82,-6.263 -3.982,-4.175 -5.973,-9.448 -5.973,-15.82 0,-6.226 2.002,-11.439 6.01,-15.638 C -11.778,2.1 -6.516,0 0,0 m -39.314,21.937 c 0,4.971 0.893,9.714 2.679,14.228 1.785,4.512 4.319,8.53 7.602,12.054 3.282,3.523 7.445,6.323 12.489,8.399 5.044,2.075 10.607,3.113 16.689,3.113 6.033,0 11.56,-1.049 16.58,-3.149 5.019,-2.1 9.159,-4.912 12.417,-8.435 3.258,-3.524 5.779,-7.542 7.566,-12.055 1.785,-4.514 2.679,-9.231 2.679,-14.155 0,-7.192 -1.738,-13.683 -5.213,-19.475 -3.475,-5.793 -8.207,-10.271 -14.191,-13.431 -5.986,-3.162 -12.598,-4.742 -19.838,-4.742 -7.289,0 -13.926,1.58 -19.911,4.742 -5.985,3.16 -10.74,7.638 -14.263,13.431 -3.524,5.792 -5.285,12.283 -5.285,19.475"
             style="fill:#f15c36;fill-opacity:1;fill-rule:nonzero;stroke:none"
             id="path20" />
        </g>
        <g
           id="g22"
           transform="translate(309.1606,67.2469)">
          <path
             d="m 0,0 h -17.811 v 72.475 h 17.232 v -9.919 c 2.558,3.716 5.912,6.552 10.063,8.506 4.151,1.956 8.447,2.933 12.888,2.933 11.44,0 19.741,-4.152 24.906,-12.453 3.041,4.199 6.794,7.324 11.259,9.376 4.464,2.051 9.255,3.077 14.372,3.077 9.557,0 16.966,-2.896 22.227,-8.688 5.26,-5.792 7.892,-13.684 7.892,-23.676 V 0 H 85.217 v 39.604 c 0,5.55 -1.231,10.028 -3.693,13.431 -2.461,3.403 -6.371,5.104 -11.729,5.104 -6.13,0 -10.704,-1.871 -13.72,-5.611 C 53.058,48.787 51.55,43.586 51.55,36.925 V 0 H 33.812 v 39.604 c 0,5.55 -1.304,10.028 -3.91,13.431 -2.607,3.403 -6.661,5.104 -12.164,5.104 -5.744,0 -10.136,-1.871 -13.177,-5.611 C 1.521,48.787 0,43.827 0,37.649 Z"
             style="fill:#2f50a3;fill-opacity:1;fill-rule:nonzero;stroke:none"
             id="path24" />
        </g>
        <g
           id="g26"
           transform="translate(468.3955,80.1346)">
          <path
             d="m 0,0 c 6.274,0 11.367,2.209 15.276,6.625 3.911,4.416 5.866,9.834 5.866,16.254 0,6.419 -1.944,11.826 -5.829,16.218 -3.885,4.392 -8.991,6.589 -15.313,6.589 -6.274,0 -11.38,-2.221 -15.313,-6.661 -3.935,-4.442 -5.901,-9.823 -5.901,-16.146 0,-6.42 1.955,-11.838 5.865,-16.254 C -11.44,2.209 -6.323,0 0,0 M -21.068,-45.034 H -38.88 V 59.587 h 17.232 V 49.523 c 2.798,3.62 6.455,6.455 10.969,8.507 4.513,2.052 9.303,3.077 14.371,3.077 4.78,0 9.304,-0.869 13.577,-2.606 4.271,-1.738 8.036,-4.188 11.293,-7.349 3.258,-3.162 5.83,-7.131 7.711,-11.91 1.883,-4.779 2.824,-10.04 2.824,-15.784 0,-11.053 -3.294,-20.116 -9.883,-27.187 -6.589,-7.071 -15.289,-10.606 -26.101,-10.606 -4.875,0 -9.448,0.917 -13.719,2.751 -4.273,1.834 -7.76,4.319 -10.462,7.457 z"
             style="fill:#2f50a3;fill-opacity:1;fill-rule:nonzero;stroke:none"
             id="path28" />
        </g>
        <g
           id="g30"
           transform="translate(571.9434,97.077)">
          <path
             d="M 0,0 V 2.968 L -21.937,0 c -4.007,-0.579 -7.144,-1.763 -9.413,-3.548 -2.269,-1.786 -3.331,-3.813 -3.186,-6.082 0.193,-2.944 1.557,-5.152 4.092,-6.624 2.533,-1.474 5.658,-2.137 9.376,-1.991 5.502,0.24 10.389,2.015 14.661,5.321 C -2.136,-9.618 0,-5.311 0,0 m -33.377,16.87 -16.291,3.692 c 1.014,7.385 4.525,13.165 10.535,17.34 6.009,4.175 14.202,6.263 24.58,6.263 5.309,0 10.039,-0.712 14.192,-2.136 4.15,-1.424 7.48,-3.392 9.991,-5.901 2.509,-2.51 4.403,-5.357 5.683,-8.543 1.279,-3.186 1.918,-6.613 1.918,-10.281 V -29.975 H 0.29 v 9.485 c -2.317,-3.235 -5.841,-5.864 -10.571,-7.892 -4.731,-2.027 -9.895,-3.064 -15.494,-3.113 -3.33,-0.048 -6.456,0.266 -9.376,0.941 -2.921,0.677 -5.636,1.738 -8.146,3.186 -2.51,1.448 -4.549,3.45 -6.117,6.01 -1.569,2.557 -2.498,5.525 -2.788,8.905 -0.579,4.44 0.254,8.374 2.498,11.801 2.244,3.427 5.369,6.118 9.376,8.073 4.006,1.955 8.664,3.269 13.974,3.946 l 21.793,2.534 c 1.785,0.192 3.015,0.724 3.692,1.593 0.676,0.869 0.965,2.172 0.869,3.909 -0.097,3.041 -1.424,5.503 -3.981,7.386 -2.56,1.882 -6.325,2.823 -11.295,2.823 -10.958,0 -16.992,-4.248 -18.101,-12.742"
             style="fill:#2f50a3;fill-opacity:1;fill-rule:nonzero;stroke:none"
             id="path32" />
        </g>
        <g
           id="g34"
           transform="translate(600.9414,88.0262)">
          <path
             d="m 0,0 15.711,2.969 c 0.435,-1.256 1.05,-2.45 1.847,-3.584 0.796,-1.135 1.929,-2.342 3.402,-3.62 1.472,-1.28 3.487,-2.306 6.046,-3.077 2.557,-0.773 5.477,-1.159 8.761,-1.159 4.97,0 8.953,0.808 11.946,2.426 2.992,1.616 4.489,3.486 4.489,5.611 0,1.689 -1.026,3.173 -3.078,4.453 -2.052,1.278 -4.936,2.208 -8.651,2.787 L 29.178,8.761 C 10.69,11.849 1.448,19.066 1.448,30.409 c 0,6.709 2.98,12.188 8.942,16.436 5.961,4.246 14.419,6.371 25.377,6.371 4.778,0 9.109,-0.46 12.996,-1.376 3.884,-0.918 7.058,-2.099 9.52,-3.548 2.462,-1.447 4.549,-3.138 6.263,-5.068 1.713,-1.931 2.969,-3.813 3.766,-5.647 0.795,-1.835 1.314,-3.692 1.555,-5.575 L 53.36,29.468 c -0.628,2.606 -2.51,4.79 -5.647,6.553 -3.139,1.761 -7.24,2.642 -12.309,2.642 -4.633,0 -8.483,-0.809 -11.548,-2.426 -3.066,-1.617 -4.597,-3.681 -4.597,-6.19 0,-3.765 4.56,-6.42 13.683,-7.964 l 12.309,-1.955 c 8.64,-1.448 14.842,-4.067 18.607,-7.856 3.765,-3.79 5.599,-8.145 5.503,-13.068 -0.145,-6.371 -3.186,-11.537 -9.123,-15.494 -5.937,-3.958 -13.999,-5.937 -24.182,-5.937 -4.875,0 -9.352,0.519 -13.431,1.556 -4.079,1.038 -7.409,2.341 -9.991,3.91 -2.583,1.569 -4.815,3.378 -6.697,5.431 C 4.055,-9.279 2.666,-7.324 1.773,-5.466 0.88,-3.608 0.289,-1.786 0,0"
             style="fill:#2f50a3;fill-opacity:1;fill-rule:nonzero;stroke:none"
             id="path36" />
        </g>
        <g
           id="g38"
           transform="translate(682.4355,88.0262)">
          <path
             d="m 0,0 15.712,2.969 c 0.434,-1.256 1.05,-2.45 1.847,-3.584 0.795,-1.135 1.929,-2.342 3.402,-3.62 1.472,-1.28 3.487,-2.306 6.046,-3.077 2.557,-0.773 5.477,-1.159 8.761,-1.159 4.97,0 8.952,0.808 11.946,2.426 2.991,1.616 4.488,3.486 4.488,5.611 0,1.689 -1.025,3.173 -3.077,4.453 -2.052,1.278 -4.936,2.208 -8.651,2.787 L 29.179,8.761 c -18.488,3.088 -27.73,10.305 -27.73,21.648 0,6.709 2.98,12.188 8.942,16.436 5.961,4.246 14.419,6.371 25.377,6.371 4.778,0 9.109,-0.46 12.995,-1.376 3.884,-0.918 7.059,-2.099 9.521,-3.548 2.462,-1.447 4.549,-3.138 6.263,-5.068 1.713,-1.931 2.969,-3.813 3.765,-5.647 0.796,-1.835 1.314,-3.692 1.556,-5.575 L 53.36,29.468 c -0.628,2.606 -2.509,4.79 -5.646,6.553 -3.139,1.761 -7.24,2.642 -12.309,2.642 -4.634,0 -8.483,-0.809 -11.549,-2.426 -3.065,-1.617 -4.596,-3.681 -4.596,-6.19 0,-3.765 4.56,-6.42 13.683,-7.964 l 12.309,-1.955 c 8.639,-1.448 14.842,-4.067 18.607,-7.856 3.765,-3.79 5.599,-8.145 5.503,-13.068 -0.145,-6.371 -3.186,-11.537 -9.123,-15.494 -5.937,-3.958 -13.999,-5.937 -24.182,-5.937 -4.876,0 -9.352,0.519 -13.431,1.556 -4.079,1.038 -7.41,2.341 -9.991,3.91 -2.583,1.569 -4.815,3.378 -6.698,5.431 -1.881,2.051 -3.27,4.006 -4.163,5.864 C 0.881,-3.608 0.29,-1.786 0,0"
             style="fill:#2f50a3;fill-opacity:1;fill-rule:nonzero;stroke:none"
             id="path40" />
        </g>
        <g
           id="g42"
           transform="translate(138.5288,118.2899)">
          <path
             d="m 0,0 v -13.686 h 30.843 c -0.39,-6.612 -3.166,-11.969 -8.329,-16.073 -4.17,-3.312 -9.406,-5.291 -15.714,-5.929 L 2.149,-47.652 -2.38,-35.664 c -7.367,0.84 -13.668,3.81 -18.911,8.913 -5.077,4.943 -8.103,10.91 -9.071,17.893 l -13.747,5.339 13.808,5.218 c 1.041,6.904 4.134,12.785 9.266,17.631 5.261,4.968 11.501,7.903 18.709,8.81 l 4.682,12.054 4.53,-11.993 c 3.616,-0.42 7.062,-1.394 10.343,-2.935 4.536,-2.124 8.329,-5.065 11.367,-8.834 l 13.035,12.165 c -4.731,5.211 -10.514,9.254 -17.339,12.127 -6.831,2.874 -14.04,4.311 -21.613,4.311 -7.002,0 -13.65,-1.2 -19.951,-3.586 -6.295,-2.387 -11.775,-5.687 -16.432,-9.882 -4.658,-4.2 -8.365,-9.363 -11.117,-15.494 -2.746,-6.131 -4.122,-12.742 -4.122,-19.842 0,-6.946 1.278,-13.491 3.836,-19.616 2.557,-6.131 5.96,-11.311 10.21,-15.53 4.243,-4.226 9.18,-7.544 14.806,-9.955 5.619,-2.417 11.476,-3.622 17.558,-3.622 8.006,0 14.935,1.534 20.779,4.596 5.839,3.063 10.375,7.398 13.608,12.999 V -51.043 H 47.713 V 0 Z"
             style="fill:#f15c36;fill-opacity:1;fill-rule:nonzero;stroke:none"
             id="path44" />
        </g>
      </g>
    </g>
  </g>
</svg>
